<svg xmlns="http://www.w3.org/2000/svg" xmlns:xlink="http://www.w3.org/1999/xlink" width="200" zoomAndPan="magnify" viewBox="0 0 300 74.999997" height="50" preserveAspectRatio="xMidYMid meet" version="1.0"><defs><g/><clipPath id="985d9c0e96"><path d="M 49.269531 11.007812 L 98.019531 11.007812 L 98.019531 59.757812 L 49.269531 59.757812 Z M 49.269531 11.007812 " clip-rule="nonzero"/></clipPath><clipPath id="070a8200ae"><path d="M 73.644531 11.007812 C 60.183594 11.007812 49.269531 21.921875 49.269531 35.382812 C 49.269531 48.84375 60.183594 59.757812 73.644531 59.757812 C 87.105469 59.757812 98.019531 48.84375 98.019531 35.382812 C 98.019531 21.921875 87.105469 11.007812 73.644531 11.007812 Z M 73.644531 11.007812 " clip-rule="nonzero"/></clipPath><clipPath id="4932c9ace8"><path d="M 56.839844 20.382812 L 90.589844 20.382812 L 90.589844 50 L 56.839844 50 Z M 56.839844 20.382812 " clip-rule="nonzero"/></clipPath></defs><g clip-path="url(#985d9c0e96)"><g clip-path="url(#070a8200ae)"><path fill="#555555" d="M 49.269531 11.007812 L 98.019531 11.007812 L 98.019531 59.757812 L 49.269531 59.757812 Z M 49.269531 11.007812 " fill-opacity="1" fill-rule="nonzero"/></g></g><g clip-path="url(#4932c9ace8)"><path fill="#ffffff" d="M 89.9375 36.6875 C 90.21875 36.6875 90.445312 36.914062 90.445312 37.195312 C 90.445312 37.476562 90.21875 37.703125 89.9375 37.703125 L 88.441406 37.703125 C 88.160156 37.703125 87.933594 37.476562 87.933594 37.195312 C 87.933594 36.914062 88.160156 36.6875 88.441406 36.6875 Z M 63.265625 49.179688 L 63.265625 41.402344 C 63.265625 41.144531 63.050781 40.933594 62.796875 40.933594 L 60.507812 40.933594 C 60.25 40.933594 60.039062 41.144531 60.039062 41.402344 L 60.039062 49.179688 C 60.039062 49.4375 60.25 49.648438 60.507812 49.648438 L 62.796875 49.648438 C 63.050781 49.648438 63.265625 49.4375 63.265625 49.179688 Z M 75.648438 42.171875 L 70.132812 42.171875 C 70.089844 42.171875 70.046875 42.164062 70.003906 42.152344 C 67.953125 41.605469 66.347656 41.539062 64.34375 41.722656 C 64.308594 41.726562 64.28125 41.757812 64.28125 41.792969 L 64.28125 48.265625 C 64.28125 48.300781 64.308594 48.332031 64.34375 48.332031 C 64.714844 48.359375 65.09375 48.390625 65.484375 48.425781 C 69.546875 48.789062 73.375 50.378906 77.308594 48.804688 C 78.164062 48.460938 78.996094 48.007812 80.023438 47.414062 L 80.023438 47.417969 L 87.71875 42.039062 C 87.726562 42.035156 87.734375 42.027344 87.742188 42.023438 C 88.585938 41.539062 88.445312 40.246094 87.476562 39.984375 C 87.199219 39.910156 86.894531 39.941406 86.628906 40.09375 L 79.980469 43.933594 C 79.964844 43.941406 79.875 43.996094 79.757812 44.066406 C 79.542969 44.195312 75.914062 45.539062 75.648438 45.539062 L 70.132812 45.539062 C 69.851562 45.539062 69.625 45.3125 69.625 45.03125 C 69.625 44.75 69.851562 44.519531 70.132812 44.519531 L 75.648438 44.519531 C 76.691406 44.519531 77.222656 43.261719 76.480469 42.515625 C 76.265625 42.304688 75.972656 42.171875 75.648438 42.171875 Z M 80.535156 31.300781 C 80.535156 30.855469 80.171875 30.492188 79.730469 30.492188 L 67.558594 30.492188 C 67.113281 30.492188 66.75 30.855469 66.75 31.300781 L 66.75 32.253906 C 66.75 32.28125 66.761719 32.300781 66.785156 32.316406 L 72.691406 35.476562 C 73.304688 35.804688 73.980469 35.804688 74.59375 35.476562 L 80.5 32.316406 C 80.523438 32.300781 80.535156 32.28125 80.535156 32.253906 Z M 77.167969 29.40625 L 77.167969 28.292969 C 77.167969 27.433594 76.464844 26.734375 75.605469 26.734375 L 71.679688 26.734375 C 70.820312 26.734375 70.117188 27.433594 70.117188 28.292969 L 70.117188 29.40625 C 70.117188 29.445312 70.148438 29.476562 70.1875 29.476562 L 71.070312 29.476562 C 71.105469 29.476562 71.136719 29.445312 71.136719 29.40625 L 71.136719 28.292969 C 71.136719 27.996094 71.382812 27.75 71.679688 27.75 L 75.605469 27.75 C 75.902344 27.75 76.148438 27.996094 76.148438 28.292969 L 76.148438 29.40625 C 76.148438 29.445312 76.179688 29.476562 76.21875 29.476562 L 77.101562 29.476562 C 77.136719 29.476562 77.167969 29.445312 77.167969 29.40625 Z M 80.4375 33.5 C 80.457031 33.488281 80.480469 33.488281 80.503906 33.5 C 80.523438 33.515625 80.535156 33.535156 80.535156 33.558594 L 80.535156 39.085938 C 80.535156 39.527344 80.171875 39.894531 79.730469 39.894531 L 67.558594 39.894531 C 67.113281 39.894531 66.75 39.527344 66.75 39.085938 L 66.75 33.558594 C 66.75 33.535156 66.761719 33.515625 66.78125 33.5 C 66.804688 33.488281 66.828125 33.488281 66.851562 33.5 L 72.214844 36.375 C 73.132812 36.867188 74.152344 36.867188 75.074219 36.375 Z M 57.347656 37.703125 C 57.066406 37.703125 56.839844 37.476562 56.839844 37.195312 C 56.839844 36.914062 57.066406 36.6875 57.347656 36.6875 L 58.84375 36.6875 C 59.125 36.6875 59.355469 36.914062 59.355469 37.195312 C 59.355469 37.476562 59.125 37.703125 58.84375 37.703125 Z M 59.28125 29.488281 C 59.035156 29.347656 58.953125 29.039062 59.09375 28.796875 C 59.230469 28.550781 59.542969 28.46875 59.785156 28.609375 L 61.082031 29.355469 C 61.324219 29.496094 61.40625 29.804688 61.265625 30.046875 C 61.128906 30.292969 60.816406 30.375 60.574219 30.234375 Z M 65.054688 23.339844 C 64.914062 23.097656 65 22.785156 65.242188 22.644531 C 65.484375 22.503906 65.796875 22.585938 65.9375 22.828125 L 66.683594 24.125 C 66.824219 24.367188 66.742188 24.679688 66.5 24.820312 C 66.257812 24.960938 65.945312 24.875 65.804688 24.632812 Z M 73.132812 20.902344 C 73.132812 20.621094 73.363281 20.390625 73.644531 20.390625 C 73.925781 20.390625 74.152344 20.621094 74.152344 20.902344 L 74.152344 22.398438 C 74.152344 22.679688 73.925781 22.90625 73.644531 22.90625 C 73.363281 22.90625 73.132812 22.679688 73.132812 22.398438 Z M 81.351562 22.828125 C 81.492188 22.585938 81.800781 22.503906 82.042969 22.644531 C 82.289062 22.785156 82.371094 23.097656 82.230469 23.339844 L 81.480469 24.632812 C 81.339844 24.875 81.03125 24.960938 80.789062 24.820312 C 80.542969 24.679688 80.460938 24.367188 80.601562 24.125 Z M 87.5 28.609375 C 87.746094 28.46875 88.054688 28.550781 88.195312 28.796875 C 88.332031 29.039062 88.25 29.347656 88.007812 29.488281 L 86.710938 30.234375 C 86.46875 30.375 86.160156 30.292969 86.019531 30.046875 C 85.878906 29.804688 85.964844 29.496094 86.207031 29.355469 Z M 87.5 28.609375 " fill-opacity="1" fill-rule="evenodd"/></g><g fill="#555555" fill-opacity="1"><g transform="translate(101.951256, 46.910536)"><g><path d="M 8.359375 0.34375 C 6.335938 0.34375 4.65625 -0.0351562 3.3125 -0.796875 C 1.976562 -1.566406 1.003906 -2.601562 0.390625 -3.90625 L 3.046875 -7.140625 L 3.46875 -7.140625 C 3.894531 -6.085938 4.507812 -5.257812 5.3125 -4.65625 C 6.113281 -4.050781 7.039062 -3.75 8.09375 -3.75 C 9.28125 -3.75 10.160156 -4.09375 10.734375 -4.78125 C 11.316406 -5.476562 11.609375 -6.601562 11.609375 -8.15625 L 11.609375 -23.875 L 16.3125 -23.875 L 16.3125 -8.078125 C 16.3125 -5.191406 15.65625 -3.066406 14.34375 -1.703125 C 13.03125 -0.335938 11.035156 0.34375 8.359375 0.34375 Z M 8.359375 0.34375 "/></g></g></g><g fill="#555555" fill-opacity="1"><g transform="translate(121.210963, 46.910536)"><g><path d="M 10.46875 0.34375 C 8.707031 0.34375 7.160156 -0.015625 5.828125 -0.734375 C 4.492188 -1.460938 3.457031 -2.523438 2.71875 -3.921875 C 1.976562 -5.328125 1.609375 -7.019531 1.609375 -9 C 1.609375 -10.976562 1.976562 -12.671875 2.71875 -14.078125 C 3.457031 -15.484375 4.492188 -16.546875 5.828125 -17.265625 C 7.160156 -17.984375 8.707031 -18.34375 10.46875 -18.34375 C 12.226562 -18.34375 13.773438 -17.984375 15.109375 -17.265625 C 16.441406 -16.546875 17.476562 -15.484375 18.21875 -14.078125 C 18.957031 -12.671875 19.328125 -10.976562 19.328125 -9 C 19.328125 -7.019531 18.957031 -5.328125 18.21875 -3.921875 C 17.476562 -2.523438 16.441406 -1.460938 15.109375 -0.734375 C 13.773438 -0.015625 12.226562 0.34375 10.46875 0.34375 Z M 10.46875 -3.5 C 13.257812 -3.5 14.65625 -5.332031 14.65625 -9 C 14.65625 -10.90625 14.296875 -12.300781 13.578125 -13.1875 C 12.859375 -14.070312 11.820312 -14.515625 10.46875 -14.515625 C 7.664062 -14.515625 6.265625 -12.675781 6.265625 -9 C 6.265625 -5.332031 7.664062 -3.5 10.46875 -3.5 Z M 10.46875 -3.5 "/></g></g></g><g fill="#555555" fill-opacity="1"><g transform="translate(142.135492, 46.910536)"><g><path d="M 12.59375 0.34375 C 10.289062 0.34375 8.582031 -0.515625 7.46875 -2.234375 L 7.125 -2.171875 L 7.125 0 L 2.59375 0 L 2.59375 -25.234375 L 7.125 -25.234375 L 7.125 -15.890625 L 7.46875 -15.828125 C 8.082031 -16.679688 8.8125 -17.3125 9.65625 -17.71875 C 10.5 -18.132812 11.507812 -18.34375 12.6875 -18.34375 C 14.144531 -18.34375 15.414062 -18 16.5 -17.3125 C 17.59375 -16.632812 18.441406 -15.59375 19.046875 -14.1875 C 19.660156 -12.789062 19.96875 -11.0625 19.96875 -9 C 19.96875 -6.945312 19.648438 -5.222656 19.015625 -3.828125 C 18.390625 -2.429688 17.519531 -1.382812 16.40625 -0.6875 C 15.300781 0 14.03125 0.34375 12.59375 0.34375 Z M 11.21875 -3.5 C 12.539062 -3.5 13.550781 -3.941406 14.25 -4.828125 C 14.945312 -5.710938 15.296875 -7.101562 15.296875 -9 C 15.296875 -10.90625 14.945312 -12.300781 14.25 -13.1875 C 13.550781 -14.070312 12.539062 -14.515625 11.21875 -14.515625 C 9.945312 -14.515625 8.9375 -14.054688 8.1875 -13.140625 C 7.4375 -12.222656 7.0625 -10.84375 7.0625 -9 C 7.0625 -7.144531 7.4375 -5.765625 8.1875 -4.859375 C 8.9375 -3.953125 9.945312 -3.5 11.21875 -3.5 Z M 11.21875 -3.5 "/></g></g></g><g fill="#555555" fill-opacity="1"><g transform="translate(163.69657, 46.910536)"><g><path d="M 4.84375 -20.15625 C 4.03125 -20.15625 3.367188 -20.40625 2.859375 -20.90625 C 2.347656 -21.40625 2.09375 -22.046875 2.09375 -22.828125 C 2.09375 -23.597656 2.347656 -24.226562 2.859375 -24.71875 C 3.367188 -25.21875 4.03125 -25.46875 4.84375 -25.46875 C 5.394531 -25.46875 5.878906 -25.351562 6.296875 -25.125 C 6.722656 -24.894531 7.050781 -24.582031 7.28125 -24.1875 C 7.519531 -23.789062 7.640625 -23.335938 7.640625 -22.828125 C 7.640625 -22.316406 7.519531 -21.859375 7.28125 -21.453125 C 7.050781 -21.046875 6.722656 -20.726562 6.296875 -20.5 C 5.878906 -20.269531 5.394531 -20.15625 4.84375 -20.15625 Z M 2.59375 0 L 2.59375 -18.015625 L 7.125 -18.015625 L 7.125 0 Z M 2.59375 0 "/></g></g></g><g fill="#555555" fill-opacity="1"><g transform="translate(173.391711, 46.910536)"><g><path d="M 14.46875 7.296875 L 14.46875 -2.15625 L 14.125 -2.21875 C 13.03125 -0.507812 11.28125 0.34375 8.875 0.34375 C 7.46875 0.34375 6.21875 0 5.125 -0.6875 C 4.03125 -1.375 3.171875 -2.410156 2.546875 -3.796875 C 1.921875 -5.191406 1.609375 -6.910156 1.609375 -8.953125 C 1.609375 -11.023438 1.925781 -12.765625 2.5625 -14.171875 C 3.207031 -15.578125 4.09375 -16.625 5.21875 -17.3125 C 6.34375 -18 7.644531 -18.34375 9.125 -18.34375 C 10.25 -18.34375 11.226562 -18.132812 12.0625 -17.71875 C 12.894531 -17.3125 13.582031 -16.664062 14.125 -15.78125 L 14.46875 -15.859375 L 14.46875 -18.015625 L 18.984375 -18.015625 L 18.984375 7.296875 Z M 10.375 -3.5 C 11.644531 -3.5 12.648438 -3.945312 13.390625 -4.84375 C 14.128906 -5.75 14.5 -7.117188 14.5 -8.953125 C 14.5 -10.816406 14.128906 -12.207031 13.390625 -13.125 C 12.648438 -14.050781 11.644531 -14.515625 10.375 -14.515625 C 9.03125 -14.515625 8.007812 -14.066406 7.3125 -13.171875 C 6.613281 -12.285156 6.265625 -10.878906 6.265625 -8.953125 C 6.265625 -5.316406 7.632812 -3.5 10.375 -3.5 Z M 10.375 -3.5 "/></g></g></g><g fill="#555555" fill-opacity="1"><g transform="translate(194.969111, 46.910536)"><g><path d="M 8.25 0.34375 C 6.21875 0.34375 4.71875 -0.207031 3.75 -1.3125 C 2.789062 -2.414062 2.3125 -4.003906 2.3125 -6.078125 L 2.3125 -18.015625 L 6.84375 -18.015625 L 6.84375 -6.640625 C 6.84375 -5.546875 7.078125 -4.742188 7.546875 -4.234375 C 8.023438 -3.734375 8.757812 -3.484375 9.75 -3.484375 C 11 -3.484375 11.972656 -3.890625 12.671875 -4.703125 C 13.367188 -5.523438 13.71875 -6.820312 13.71875 -8.59375 L 13.71875 -18.015625 L 18.234375 -18.015625 L 18.234375 0 L 13.890625 0 L 13.890625 -2.640625 L 13.546875 -2.734375 C 12.972656 -1.691406 12.269531 -0.914062 11.4375 -0.40625 C 10.601562 0.09375 9.539062 0.34375 8.25 0.34375 Z M 8.25 0.34375 "/></g></g></g><g fill="#555555" fill-opacity="1"><g transform="translate(215.79571, 46.910536)"><g><path d="M 17.796875 -7.984375 L 6.21875 -7.984375 C 6.351562 -6.410156 6.800781 -5.269531 7.5625 -4.5625 C 8.320312 -3.851562 9.359375 -3.5 10.671875 -3.5 C 11.710938 -3.5 12.550781 -3.691406 13.1875 -4.078125 C 13.832031 -4.460938 14.351562 -5.046875 14.75 -5.828125 L 15.09375 -5.828125 L 18.09375 -3.90625 C 17.5 -2.644531 16.609375 -1.617188 15.421875 -0.828125 C 14.242188 -0.046875 12.660156 0.34375 10.671875 0.34375 C 8.816406 0.34375 7.210938 -0.0078125 5.859375 -0.71875 C 4.503906 -1.425781 3.457031 -2.476562 2.71875 -3.875 C 1.976562 -5.269531 1.609375 -6.976562 1.609375 -9 C 1.609375 -11.039062 1.992188 -12.765625 2.765625 -14.171875 C 3.546875 -15.578125 4.59375 -16.625 5.90625 -17.3125 C 7.226562 -18 8.707031 -18.34375 10.34375 -18.34375 C 12.894531 -18.34375 14.847656 -17.664062 16.203125 -16.3125 C 17.554688 -14.96875 18.234375 -12.992188 18.234375 -10.390625 C 18.234375 -9.441406 18.203125 -8.707031 18.140625 -8.1875 Z M 13.90625 -10.90625 C 13.863281 -12.28125 13.546875 -13.28125 12.953125 -13.90625 C 12.359375 -14.53125 11.488281 -14.84375 10.34375 -14.84375 C 8.0625 -14.84375 6.71875 -13.53125 6.3125 -10.90625 Z M 13.90625 -10.90625 "/></g></g></g></svg>